# xmcd CD database file
#
# Track frame offsets:
#	150
#	19120
#	38652
#	62384
#	82482
#	102099
#	126600
#	143493
#	159445
#	178986
#	198755
#	222823
#	243951
#	262857
#
# Disc length: 3744 seconds
#
# Revision: 0
# Processed by: cddbd v1.4PL0 Copyright (c) Steve Scherf et al.
# Submitted via: CDex 1.50beta10
#
DISCID=bb0e9e0e
DTITLE=Alfredo de la Fe - Salsa Passion
DYEAR=2001
DGENRE=Salsa
TTITLE0=Excelente Amante
TTITLE1=Baranquillia Es
TTITLE2=N.N.
TTITLE3=Ya No Te Estoy Creyendo
TTITLE4=Tu Eres
TTITLE5=Hacha Y Machete
TTITLE6=La Mucura
TTITLE7=Negro Por Excelencia
TTITLE8=La Salsa Nacio Hace Tiempo
TTITLE9=La Cantaleta
TTITLE10=Historia de Dos Salseros
TTITLE11=Suena Tu Timbal
TTITLE12=Sin Detenerte
TTITLE13=Juaniquita
EXTD=YEAR: 2001
EXTT0=
EXTT1=
EXTT2=
EXTT3=
EXTT4=
EXTT5=
EXTT6=
EXTT7=
EXTT8=
EXTT9=
EXTT10=
EXTT11=
EXTT12=
EXTT13=
PLAYORDER=
